<svg width="72" height="14" viewBox="0 0 72 14" fill="none" xmlns="http://www.w3.org/2000/svg">
<path d="M0 13.881V0H5.27695C8.49073 0 10.3555 1.34844 10.3555 3.66855C10.3555 5.4136 9.32393 6.4051 7.73688 6.74221C9.58182 6.98017 10.8515 7.95184 10.8515 9.93484C10.8515 12.3541 8.947 13.881 5.53484 13.881H0ZM5.3563 2.33994H2.97572V5.71105H5.3563C6.62594 5.71105 7.37979 5.05666 7.37979 4.0255C7.37979 2.99433 6.64578 2.33994 5.3563 2.33994ZM5.55468 8.01133H2.97572V11.5212H5.55468C6.98303 11.5212 7.79639 10.8669 7.79639 9.79603C7.79639 8.66572 6.96319 8.01133 5.55468 8.01133Z" fill="#222222"/>
<path d="M17.3197 14C13.9274 14 11.8841 11.9575 11.8841 8.80453C11.8841 5.63173 13.9671 3.5694 17.1213 3.5694C20.1764 3.5694 22.2396 5.47309 22.2793 8.46742C22.2793 8.76487 22.2594 9.10198 22.1999 9.41926H14.8003V9.55807C14.8598 11.0057 15.7922 11.8782 17.2007 11.8782C18.3315 11.8782 19.125 11.3824 19.3631 10.4306H22.1206C21.8032 12.4136 20.0376 14 17.3197 14ZM14.8598 7.5949H19.4622C19.2639 6.34561 18.4108 5.65156 17.1412 5.65156C15.9311 5.65156 15.0185 6.38527 14.8598 7.5949Z" fill="#222222"/>
<path d="M22.4391 1.5864V0H33.1715V1.5864H28.6682V13.881H26.9423V1.5864H22.4391Z" fill="#222222"/>
<path d="M41.3614 12.3938H41.8772V13.881H40.9845C39.6355 13.881 39.1792 13.3059 39.1594 12.3144C38.5245 13.2266 37.5128 14 35.767 14C33.5452 14 32.0375 12.8895 32.0375 11.0453C32.0375 9.02266 33.446 7.89235 36.1043 7.89235H39.08V7.1983C39.08 5.88952 38.1476 5.09632 36.5606 5.09632C35.1322 5.09632 34.18 5.77054 33.9816 6.8017H32.3549C32.5929 4.8187 34.1998 3.64873 36.6399 3.64873C39.2189 3.64873 40.7067 4.93768 40.7067 7.29745V11.7195C40.7067 12.255 40.9051 12.3938 41.3614 12.3938ZM39.08 9.75637V9.26062H35.9456C34.4974 9.26062 33.684 9.79603 33.684 10.9462C33.684 11.9377 34.5371 12.6119 35.8861 12.6119C37.9096 12.6119 39.08 11.4419 39.08 9.75637Z" fill="#222222"/>
<path d="M42.3342 13.881V0H43.961V13.881H42.3342Z" fill="#222222"/>
<path d="M50.0579 14C47.0227 14 45.0389 11.9178 45.0389 8.82436C45.0389 5.75071 46.983 3.64873 49.8397 3.64873C52.6964 3.64873 54.5612 5.45326 54.6405 8.44759C54.6405 8.66572 54.6207 8.90368 54.6009 9.14164H46.745V9.28045C46.8045 11.204 48.0146 12.5524 49.9389 12.5524C51.3673 12.5524 52.4782 11.7989 52.8154 10.4901H54.462C54.0652 12.5127 52.3988 14 50.0579 14ZM46.8442 7.7932H52.8948C52.7361 6.04816 51.5458 5.07649 49.8596 5.07649C48.3717 5.07649 47.0029 6.14731 46.8442 7.7932Z" fill="#222222"/>
<path d="M60.6628 3.64873C62.9442 3.64873 64.7495 4.89802 64.7495 8.24929V13.881H63.1227V8.34844C63.1227 6.24646 62.1507 5.13598 60.3851 5.13598C58.4806 5.13598 57.33 6.54391 57.33 8.82436V13.881H55.7033V3.7677H57.1118L57.33 5.13598C57.9252 4.36261 58.9567 3.64873 60.6628 3.64873Z" fill="#222222"/>
<path d="M66.7838 11.2436V5.25496H64.9587V3.7677H66.7838V0.932011H68.4105V3.7677H71.0292V5.25496H68.4105V11.2238C68.4105 12.0765 68.7081 12.3938 69.581 12.3938H71.1879V13.881H69.4223C67.4781 13.881 66.7838 13.0283 66.7838 11.2436Z" fill="#222222"/>
</svg>
